:SAMPLES-PER-SECOND 30
:FULLY-SPECIFIED
:DEGREES
307
root  -51.2814 31.477 25.3142 -2.34717 68.2086 -18.5319
RightUpLeg  -2.22988 -8.61336 -11.4889
RightLeg  38.006 -3.34451 -2.29946
RightFoot  35.6835 0.743325 -1.93154
RightToes  -52.5258 -0.325453 -0.374423
Spine  7.84007 0.204889 0.199865
Spine1  14.0765 1.74845 -1.21896
HEad  11.7946 15.9017 3.64204
LeftShoulder1  0 -2.42657e-020 -4.95415e-022
LeftArm  1.13691 2.79431 -92.546
LeftForeArm  19.1676 -62.484 -19.864
LeftHand  -0.020382 -0.843347 2.41883
RightShoulder  0 2.42657e-020 1.07489e-018
RightArm  -35.9197 9.52609 65.4596
RightForeArm  15.3607 59.0356 17.1513
RightHand  3.16099 21.535 16.8856
LeftUpLeg  -56.9549 28.2033 -13.7404
LeftLeg  31.8844 4.38614 2.3445
LeftFoot  -13.1421 -0.145224 -1.26067
LeftToes  7.86669 9.37529e-007 1.1992e-007
308
root  -49.4364 30.7958 25.7665 -5.34064 72.3011 -20.8926
RightUpLeg  -5.51359 -1.99642 -8.5261
RightLeg  48.605 1.0711 1.02581
RightFoot  37.2853 -0.322962 1.33481
RightToes  -50.4151 -0.306559 -0.366092
Spine  7.58971 0.280918 -0.835733
Spine1  13.3657 2.02093 -3.15305
HEad  11.3469 14.1048 7.82946
LeftShoulder1  0 -2.42657e-020 -4.95415e-022
LeftArm  -0.751849 2.19387 -94.0576
LeftForeArm  19.2009 -65.4106 -22.7664
LeftHand  -0.00121122 -0.838741 -0.206155
RightShoulder  0 2.42657e-020 1.07489e-018
RightArm  -22.0102 8.98686 70.0295
RightForeArm  19.3892 62.7842 20.1449
RightHand  1.8064 21.4335 9.89652
LeftUpLeg  -57.5981 18.8754 -7.95849
LeftLeg  42.7412 5.86102 4.73132
LeftFoot  -8.73982 -0.0945255 -1.23692
LeftToes  9.10882 9.37529e-007 1.1992e-007
309
root  -47.4073 30.293 26.08 -0.0679321 80.299 -13.839
RightUpLeg  -7.65442 -0.742164 -7.32861
RightLeg  59.2568 2.68879 3.8325
RightFoot  26.6622 -0.500318 2.48863
RightToes  -44.9259 -0.25898 -0.341223
Spine  8.21529 0.525098 -2.38012
Spine1  14.4009 2.69957 -5.97212
HEad  8.10429 8.84392 10.9821
LeftShoulder1  0 -2.42657e-020 -4.95415e-022
LeftArm  1.90566 2.19008 -92.8461
LeftForeArm  30.1125 -68.3079 -26.4717
LeftHand  0.261674 2.10394 13.7628
RightShoulder  0 2.42657e-020 1.07489e-018
RightArm  -9.84337 7.48985 75.0925
RightForeArm  31.5493 67.4851 25.3386
RightHand  -0.318818 21.1331 -1.33937
LeftUpLeg  -54.7874 10.1002 -8.42616
LeftLeg  47.3281 6.51156 6.16682
LeftFoot  -3.9055 -0.0195157 -0.572393
LeftToes  7.48277 9.37529e-007 1.1992e-007
310
root  -45.4203 29.8982 26.3236 27.9527 88.2809 15.9762
RightUpLeg  -11.4008 -1.94711 -5.0264
RightLeg  69.0051 0.238323 0.360494
RightFoot  17.2297 -0.0131375 0.464245
RightToes  -44.3074 -0.253775 -0.338139
Spine  9.19405 1.04571 -3.10942
Spine1  16.1597 3.76936 -6.97581
HEad  5.60099 3.79136 12.3557
LeftShoulder1  0 -2.42657e-020 -4.95415e-022
LeftArm  -6.47621 4.32581 -89.5958
LeftForeArm  40.0935 -70.3051 -29.7186
LeftHand  -0.104779 -1.66938 6.84093
RightShoulder  0 2.42657e-020 1.07489e-018
RightArm  -2.0429 7.88475 78.1164
RightForeArm  45.7596 69.6548 28.6007
RightHand  -2.39207 20.9747 -12.5036
LeftUpLeg  -51.5253 6.56642 -10.7393
LeftLeg  50.5777 3.52053 3.74628
LeftFoot  -6.78986 -0.0264287 -0.445518
LeftToes  7.25493 9.37529e-007 1.1992e-007
311
root  -43.6411 29.7182 26.6393 174.413 81.4813 163.248
RightUpLeg  -17.6838 -6.20653 -2.61112
RightLeg  76.861 -1.11042 -3.94968
RightFoot  6.30649 0.0299122 -0.165397
RightToes  -38.4189 -0.205978 -0.306018
Spine  9.78813 1.52367 -2.94849
Spine1  17.3669 4.49876 -6.22436
HEad  1.42346 -0.392315 12.5779
LeftShoulder1  0 -2.42657e-020 -4.95415e-022
LeftArm  -3.57477 0.730136 -82.4991
LeftForeArm  37.1101 -70.0139 -29.1993
LeftHand  -0.0673653 -1.0505 7.01457
RightShoulder  0 2.42657e-020 1.07489e-018
RightArm  6.31786 8.54511 76.77
RightForeArm  59.8849 72.1406 33.4343
RightHand  -4.18004 19.3744 -23.7723
LeftUpLeg  -48.64 2.69009 -12.1009
LeftLeg  53.1106 0.700726 0.810042
LeftFoot  -9.24684 0.00646561 0.0799421
LeftToes  3.4953 9.37529e-007 1.1992e-007
312
root  -41.9244 29.6165 26.9561 179.497 72.0809 169.248
RightUpLeg  -25.3047 -9.80658 -0.865673
RightLeg  81.7386 -1.19212 -6.05885
RightFoot  -2.27347 0.00236415 0.496848
RightToes  -29.9347 -0.143472 -0.251512
Spine  10.5691 2.04241 -1.95743
Spine1  18.8361 5.05162 -3.63261
HEad  -1.25354 -2.81797 10.5877
LeftShoulder1  0 -2.42657e-020 -4.95415e-022
LeftArm  -1.69042 -3.65655 -78.2875
LeftForeArm  38.3966 -70.7867 -30.6128
LeftHand  -0.279013 -2.89406 10.6668
RightShoulder  0 2.42657e-020 1.07489e-018
RightArm  10.0077 10.9441 72.8657
RightForeArm  68.4473 74.2981 39.1798
RightHand  -4.699 17.9742 -28.7268
LeftUpLeg  -45.5608 0.246024 -11.959
LeftLeg  55.2719 -1.55544 -1.96968
LeftFoot  -11.4798 0.0795763 0.791652
LeftToes  -5.01043 9.37529e-007 1.1992e-007
313
root  -40.2272 29.5849 27.2436 -178.598 64.2371 171.589
RightUpLeg  -33.4385 -9.58806 -1.07666
RightLeg  83.247 -1.07578 -6.34316
RightFoot  -8.92423 0.0691088 1.26323
RightToes  -24.6282 -0.108733 -0.212952
Spine  10.9669 2.48235 -1.02738
Spine1  19.4929 5.48329 -1.45204
HEad  -3.4241 -3.07611 9.24809
LeftShoulder1  0 -2.42657e-020 -4.95415e-022
LeftArm  0.434478 -8.54831 -73.9584
LeftForeArm  49.5621 -74.137 -38.697
LeftHand  -0.499886 -4.01395 13.8459
RightShoulder  0 2.42657e-020 1.07489e-018
RightArm  12.0066 14.6769 67.7629
RightForeArm  75.634 75.5025 43.3855
RightHand  -5.39916 16.372 -35.9389
LeftUpLeg  -42.8359 -1.56145 -10.8604
LeftLeg  56.705 -4.48391 -5.93732
LeftFoot  -13.1709 0.230181 1.99362
LeftToes  -15.5557 9.37529e-007 1.1992e-007
